# xmcd CD database file
#
# Track frame offsets:
#	150
#	18088
#	40338
#	61568
#	80650
#	98090
#	113568
#	127230
#	142890
#	156848
#	170133
#	184118
#	196655
#	210563
#	223305
#	235428
#	250678
#	263873
#	278160
#	290425
#
# Disc length: 4024 seconds
#
# Revision: 2
# Processed by: cddbd v1.5.1PL2 Copyright (c) Steve Scherf et al.
# Submitted via: CDex 1.50
#
DISCID=210fb614
DTITLE=Muddy Waters - My Home Is In The Delta
DYEAR=1992
DGENRE=Blues
TTITLE0=My home is in the delta
TTITLE1=Country boy
TTITLE2=Cold weather blues
TTITLE3=Sad letter
TTITLE4=Feel like going home
TTITLE5=You don't have to go
TTITLE6=County jail
TTITLE7=Lonesome day
TTITLE8=Deep down in my heart
TTITLE9=Born lover
TTITLE10=Smokestack lightnin'
TTITLE11=Mean mistreater
TTITLE12=Close to you
TTITLE13=She's got it
TTITLE14=Trouble no more
TTITLE15=They call me Muddy Waters
TTITLE16=Don't get no further
TTITLE17=Rock me
TTITLE18=Howling wolf
TTITLE19=Crawling kingsnake
EXTD=YEAR: 1992
EXTT0=
EXTT1=
EXTT2=
EXTT3=
EXTT4=
EXTT5=
EXTT6=
EXTT7=
EXTT8=
EXTT9=
EXTT10=
EXTT11=
EXTT12=
EXTT13=
EXTT14=
EXTT15=
EXTT16=
EXTT17=
EXTT18=
EXTT19=
PLAYORDER=
